<svg id="visual" viewBox="0 0 1000 500" width="1000" height="500" xmlns="http://www.w3.org/2000/svg" xmlns:xlink="http://www.w3.org/1999/xlink" version="1.1"><rect width="1000" height="500" fill="#fff"></rect><g><g transform="translate(115 266)"><path d="M56.2 -34.7C69.7 -9.1 75.3 18.8 64.7 38.1C54 57.4 27 68 1.7 67C-23.5 66 -47 53.3 -60 32.7C-73 12.1 -75.6 -16.5 -63.8 -41.1C-52.1 -65.7 -26 -86.4 -2.3 -85C21.4 -83.7 42.7 -60.3 56.2 -34.7Z" stroke="#ffb06f" fill="none" stroke-width="1"></path></g><g transform="translate(654 169)"><path d="M44.8 -32.2C51.4 -14.5 45.4 4.2 35.9 24.3C26.3 44.3 13.2 65.8 -0.2 65.9C-13.5 66.1 -27.1 44.8 -37.3 24.3C-47.6 3.8 -54.5 -15.8 -47.7 -33.7C-40.9 -51.6 -20.5 -67.8 -0.7 -67.4C19.1 -67 38.2 -50 44.8 -32.2Z" stroke="#ffb06f" fill="none" stroke-width="1"></path></g><g transform="translate(328 179)"><path d="M40.1 -22.5C48 -9.5 47.7 8.9 39.6 21.1C31.6 33.3 15.8 39.3 -0.7 39.8C-17.2 40.2 -34.4 35 -43.2 22.4C-51.9 9.8 -52.3 -10.3 -43.7 -23.7C-35 -37 -17.5 -43.7 -0.7 -43.3C16.1 -42.9 32.3 -35.4 40.1 -22.5Z" stroke="#ffb06f" fill="none" stroke-width="1"></path></g><g transform="translate(877 127)"><path d="M58.9 -30.4C69.1 -16.4 65.1 9.4 52.9 25.3C40.7 41.1 20.4 46.9 0 46.9C-20.4 46.9 -40.8 41.1 -48.1 28.1C-55.3 15.2 -49.5 -5 -39.3 -19C-29.1 -33.1 -14.5 -41 4.9 -43.8C24.4 -46.7 48.8 -44.4 58.9 -30.4Z" stroke="#ffb06f" fill="none" stroke-width="1"></path></g><g transform="translate(514 389)"><path d="M56 -26.6C68.9 -10 73.1 17.3 62.3 36.3C51.5 55.4 25.8 66.1 1.1 65.4C-23.5 64.8 -47 52.7 -56.8 34.3C-66.6 15.8 -62.7 -9.1 -51 -25C-39.2 -40.9 -19.6 -47.8 1 -48.3C21.6 -48.9 43.1 -43.1 56 -26.6Z" stroke="#ffb06f" fill="none" stroke-width="1"></path></g><g transform="translate(858 371)"><path d="M44.2 -27C52 -11.9 49.6 7.7 40.5 23.3C31.4 38.9 15.7 50.6 0.5 50.3C-14.6 50 -29.2 37.6 -37.9 22.2C-46.6 6.9 -49.4 -11.6 -42 -26.4C-34.7 -41.3 -17.4 -52.4 0.4 -52.7C18.1 -52.9 36.3 -42.2 44.2 -27Z" stroke="#ffb06f" fill="none" stroke-width="1"></path></g></g></svg>